<?xml version="1.0" encoding="UTF-8" standalone="no"?>
<!DOCTYPE svg PUBLIC "-//W3C//DTD SVG 1.1//EN"
 "http://www.w3.org/Graphics/SVG/1.1/DTD/svg11.dtd">
<!-- Generated by graphviz version 2.43.0 (0)
 -->
<!-- Title: mygraph Pages: 1 -->
<svg width="152pt" height="188pt"
 viewBox="0.00 0.00 152.00 188.00" xmlns="http://www.w3.org/2000/svg" xmlns:xlink="http://www.w3.org/1999/xlink">
<g id="graph0" class="graph" transform="scale(1 1) rotate(0) translate(4 184)">
<title>mygraph</title>
<polygon fill="white" stroke="transparent" points="-4,4 -4,-184 148,-184 148,4 -4,4"/>
<!-- root -->
<g id="node1" class="node">
<title>root</title>
<ellipse fill="none" stroke="black" cx="54" cy="-162" rx="29.8" ry="18"/>
<text text-anchor="middle" x="54" y="-158.3" font-family="Times,serif" font-size="14.00">root</text>
</g>
<!-- A -->
<g id="node2" class="node">
<title>A</title>
<ellipse fill="none" stroke="black" cx="27" cy="-18" rx="27" ry="18"/>
<text text-anchor="middle" x="27" y="-14.3" font-family="Times,serif" font-size="14.00">A</text>
</g>
<!-- root&#45;&gt;A -->
<g id="edge1" class="edge">
<title>root&#45;&gt;A</title>
<path fill="none" stroke="black" d="M50.74,-143.87C46.14,-119.67 37.69,-75.21 32.21,-46.39"/>
<polygon fill="black" stroke="black" points="35.57,-45.36 30.27,-36.19 28.7,-46.67 35.57,-45.36"/>
</g>
<!-- B -->
<g id="node3" class="node">
<title>B</title>
<ellipse fill="none" stroke="black" cx="82" cy="-90" rx="27" ry="18"/>
<text text-anchor="middle" x="82" y="-86.3" font-family="Times,serif" font-size="14.00">B</text>
</g>
<!-- root&#45;&gt;B -->
<g id="edge2" class="edge">
<title>root&#45;&gt;B</title>
<path fill="none" stroke="black" d="M60.64,-144.41C63.91,-136.22 67.94,-126.14 71.62,-116.95"/>
<polygon fill="black" stroke="black" points="74.95,-118.05 75.41,-107.47 68.45,-115.45 74.95,-118.05"/>
</g>
<!-- A&#45;&gt;A -->
<g id="edge4" class="edge">
<title>A&#45;&gt;A</title>
<path fill="none" stroke="black" d="M46.9,-30.43C59.69,-33.68 72,-29.53 72,-18 72,-9.62 65.5,-5.14 57.04,-4.56"/>
<polygon fill="black" stroke="black" points="56.5,-1.1 46.9,-5.57 57.19,-8.07 56.5,-1.1"/>
</g>
<!-- B&#45;&gt;A -->
<g id="edge5" class="edge">
<title>B&#45;&gt;A</title>
<path fill="none" stroke="black" d="M70.07,-73.81C62.79,-64.55 53.34,-52.52 45.15,-42.09"/>
<polygon fill="black" stroke="black" points="47.84,-39.86 38.91,-34.16 42.34,-44.18 47.84,-39.86"/>
</g>
<!-- C -->
<g id="node4" class="node">
<title>C</title>
<ellipse fill="none" stroke="black" cx="117" cy="-18" rx="27" ry="18"/>
<text text-anchor="middle" x="117" y="-14.3" font-family="Times,serif" font-size="14.00">C</text>
</g>
<!-- B&#45;&gt;C -->
<g id="edge3" class="edge">
<title>B&#45;&gt;C</title>
<path fill="none" stroke="black" d="M90.12,-72.76C94.3,-64.4 99.49,-54.02 104.2,-44.61"/>
<polygon fill="black" stroke="black" points="107.34,-46.14 108.68,-35.63 101.08,-43.01 107.34,-46.14"/>
</g>
</g>
</svg>