<?xml version="1.0" standalone="no"?>
<!DOCTYPE svg PUBLIC "-//W3C//DTD SVG 20010904//EN"
 "http://www.w3.org/TR/2001/REC-SVG-20010904/DTD/svg10.dtd">
<svg version="1.0" xmlns="http://www.w3.org/2000/svg"
 width="928.000000pt" height="928.000000pt" viewBox="0 0 928.000000 928.000000"
 preserveAspectRatio="xMidYMid meet">
<metadata>
Created by potrace 1.14, written by Peter Selinger 2001-2017
</metadata>
<g transform="translate(0.000000,928.000000) scale(0.100000,-0.100000)"
fill="#000000" stroke="none">
<path d="M120 8999 c0 -5 -7 -6 -15 -3 -8 4 -15 1 -15 -5 0 -6 -4 -11 -10 -11
-15 0 -47 -35 -66 -71 -22 -44 -14 -109 24 -188 17 -33 28 -61 26 -61 -3 0 2
-12 10 -27 9 -16 36 -77 62 -138 25 -60 52 -123 60 -139 8 -16 14 -35 14 -43
0 -7 5 -13 10 -13 6 0 10 -7 10 -15 0 -8 4 -23 9 -33 9 -15 24 -49 69 -152 9
-19 15 -38 14 -42 -1 -5 2 -8 6 -8 5 0 9 -6 9 -12 0 -7 12 -38 25 -68 46 -99
69 -152 88 -200 10 -26 27 -67 38 -91 11 -24 32 -72 46 -107 15 -34 37 -84 49
-110 12 -26 22 -49 22 -52 1 -3 11 -26 23 -53 12 -26 22 -51 23 -55 2 -4 16
-36 31 -72 45 -100 52 -117 103 -235 26 -60 56 -127 66 -149 10 -21 16 -42 14
-47 -3 -4 -2 -9 3 -11 9 -4 72 -146 72 -163 0 -8 4 -15 8 -17 4 -1 23 -39 41
-83 44 -104 54 -128 86 -200 15 -33 34 -76 42 -95 8 -19 28 -63 44 -98 16 -35
29 -67 29 -71 0 -5 11 -33 24 -62 14 -30 50 -112 81 -184 31 -71 62 -143 70
-160 7 -16 22 -50 33 -75 69 -156 96 -222 102 -245 2 -5 11 -26 21 -45 11 -19
19 -38 19 -42 0 -4 15 -39 34 -77 19 -38 31 -72 28 -75 -3 -3 1 -6 8 -6 7 0
11 -2 8 -6 -3 -3 7 -32 23 -65 16 -32 29 -63 29 -68 0 -5 7 -22 15 -38 19 -37
75 -163 75 -170 0 -3 6 -19 14 -36 8 -18 29 -66 47 -107 17 -41 42 -97 55
-125 12 -27 64 -147 114 -265 98 -230 104 -243 145 -335 15 -33 33 -75 41 -92
35 -81 43 -101 63 -145 12 -26 21 -49 21 -52 0 -3 11 -29 24 -58 14 -29 37
-82 51 -118 15 -36 39 -90 54 -120 15 -30 29 -59 30 -65 1 -5 9 -26 18 -45 8
-19 19 -44 23 -55 8 -19 31 -73 63 -145 8 -19 27 -63 41 -97 14 -35 37 -86 50
-115 13 -29 38 -87 56 -128 61 -142 81 -178 115 -201 30 -21 33 -28 33 -69 -1
-29 11 -76 34 -135 20 -49 50 -128 68 -175 18 -47 42 -105 54 -130 17 -35 21
-56 16 -95 -8 -79 -1 -335 10 -335 3 0 6 -17 7 -38 5 -112 54 -284 114 -405
26 -53 107 -174 134 -201 11 -12 27 -30 35 -41 13 -17 102 -101 165 -155 11
-9 40 -30 65 -46 25 -16 47 -31 50 -34 25 -25 258 -137 305 -147 11 -2 22 -8
23 -13 2 -6 7 -8 11 -6 4 3 27 -2 51 -10 51 -18 144 -43 180 -50 14 -2 36 -7
50 -10 13 -3 40 -7 60 -10 19 -2 49 -7 65 -10 113 -24 432 -34 655 -20 167 11
325 28 325 36 0 1 14 3 30 5 35 5 68 13 110 29 114 43 148 72 198 172 61 122
139 180 315 238 39 13 72 19 72 14 0 -5 5 -6 11 -2 18 11 83 11 97 1 8 -6 12
-5 12 2 0 7 4 10 8 7 5 -3 24 -8 43 -11 19 -3 46 -8 61 -11 15 -3 29 -5 30 -4
2 0 19 -6 38 -14 19 -8 40 -15 45 -16 19 -4 60 -20 77 -30 10 -6 22 -10 28
-10 17 0 355 -170 358 -180 2 -6 12 -10 23 -10 10 0 19 -5 19 -12 0 -6 3 -8 7
-5 3 4 11 3 17 -2 24 -19 146 -81 146 -74 0 5 4 3 8 -3 8 -12 152 -86 152 -78
0 2 10 -1 23 -8 12 -7 24 -13 27 -14 3 0 12 -3 20 -7 98 -40 173 -51 360 -51
174 -1 251 6 360 30 41 9 82 17 90 19 48 8 233 85 300 125 70 42 208 158 209
176 1 6 9 18 19 28 29 26 75 124 77 164 5 83 -35 125 -185 191 -29 12 -165 50
-207 56 -49 8 -88 16 -103 22 -8 4 -19 5 -23 4 -5 -1 -47 5 -95 13 -48 8 -103
17 -122 20 -126 20 -159 32 -171 64 -15 39 -1 79 39 110 96 74 216 88 602 66
170 -9 483 -10 550 0 107 14 201 49 245 90 33 31 65 100 65 140 0 50 -41 86
-136 119 -43 15 -88 29 -99 31 -11 3 -40 9 -65 15 -41 9 -68 14 -142 26 -16 3
-42 7 -60 10 -17 3 -52 8 -77 10 -25 2 -46 5 -46 6 0 2 -20 5 -105 13 -36 4
-81 9 -100 11 -19 3 -62 7 -95 10 -57 5 -90 7 -260 20 -109 8 -288 16 -428 19
-132 3 -156 10 -142 43 5 10 9 20 10 23 1 3 7 18 14 35 7 16 19 55 28 87 9 32
20 58 25 58 5 0 6 4 3 10 -3 5 1 33 10 62 24 83 54 272 60 384 1 29 5 57 9 63
4 6 2 11 -4 11 -6 0 -8 5 -4 12 10 15 12 196 3 210 -4 6 -3 23 1 39 5 15 5 30
2 33 -3 4 -7 23 -9 44 -4 52 -11 117 -13 117 -1 0 -3 17 -5 38 -2 21 -6 50
-10 65 -4 15 -9 38 -11 52 -2 14 -7 36 -11 50 -3 14 -7 32 -9 40 -9 48 -68
225 -111 334 -61 154 -235 471 -265 484 -5 2 -8 10 -8 17 0 7 -4 15 -8 17 -5
2 -28 30 -53 63 -43 58 -73 94 -156 184 -24 25 -43 49 -43 54 0 4 -4 7 -9 7
-4 0 -33 24 -63 53 -78 75 -116 107 -128 107 -5 0 -10 4 -10 9 0 5 -42 40 -92
77 -51 38 -99 74 -106 81 -7 7 -17 13 -21 13 -4 0 -23 14 -41 30 -18 17 -39
30 -46 30 -7 0 -14 4 -16 9 -5 14 -319 226 -370 250 -26 12 -52 20 -57 17 -5
-4 -13 0 -18 7 -4 8 -39 34 -78 60 -38 25 -81 55 -94 67 -13 11 -30 20 -37 20
-7 0 -14 3 -16 8 -3 7 -534 359 -568 377 -11 5 -20 13 -20 17 0 5 -4 8 -10 8
-9 0 -94 55 -117 77 -7 6 -26 17 -43 25 -16 7 -30 16 -30 20 0 5 -5 8 -10 8
-12 0 -73 41 -78 53 -2 4 -8 7 -13 7 -8 0 -99 59 -109 71 -3 3 -10 8 -15 10
-6 2 -75 47 -155 100 -80 52 -215 141 -300 197 -85 55 -159 105 -165 109 -5 5
-50 35 -100 67 -49 32 -102 67 -117 77 -15 10 -31 19 -37 19 -5 0 -11 3 -13 8
-4 8 -65 52 -73 52 -3 0 -11 5 -18 10 -7 6 -61 43 -122 83 -60 39 -111 75
-113 79 -2 5 -7 8 -11 8 -7 0 -257 161 -278 180 -7 5 -15 10 -18 10 -3 0 -27
16 -54 35 -26 19 -53 35 -59 35 -6 0 -12 4 -14 8 -4 11 -354 242 -366 242 -6
0 -12 3 -14 8 -3 7 -263 183 -283 191 -5 2 -12 7 -15 10 -10 13 -120 81 -130
81 -5 0 -10 5 -10 10 0 6 -6 10 -14 10 -8 0 -16 3 -18 8 -5 11 -125 92 -136
92 -6 0 -12 3 -14 8 -1 4 -22 19 -45 35 -24 15 -62 39 -85 55 -24 15 -49 32
-56 39 -6 6 -21 15 -32 18 -11 3 -20 10 -20 14 0 4 -11 13 -25 19 -33 15 -529
345 -533 354 -2 5 -8 6 -13 2 -5 -3 -9 0 -9 5 0 6 -4 11 -9 11 -4 0 -59 34
-121 75 -62 41 -116 75 -121 75 -4 0 -9 3 -11 8 -1 4 -48 37 -103 73 -55 36
-155 103 -223 147 -68 45 -127 82 -132 82 -6 0 -10 4 -10 9 0 4 -20 19 -45 32
-25 13 -45 26 -45 29 0 3 -17 14 -37 25 -21 11 -40 22 -43 25 -12 12 -128 89
-155 102 -31 16 -115 21 -115 7z"/>
</g>
</svg>
